<?xml version="1.0" encoding="utf-8"?>
<!-- Generator: Adobe Illustrator 22.0.1, SVG Export Plug-In . SVG Version: 6.00 Build 0)  -->
<svg version="1.1" xmlns="http://www.w3.org/2000/svg" xmlns:xlink="http://www.w3.org/1999/xlink" x="0px" y="0px"
	 viewBox="0 0 123.7 123.7" style="enable-background:new 0 0 123.7 123.7;" xml:space="preserve">
<g id="Layer_1">
	<g>
		<g>
			<path d="M69,83.5l-0.8-4.9L68,78.6c-3.6,3.5-8.1,5.9-14.5,5.9c-10.4,0-11.8-7.1-11.8-11.7c0-8.2,5.1-12.2,15.1-13L67.3,59v-4.2
				c0-5.2-0.9-8-7.2-8c-4.5,0-7.6,0.3-7.6,6L43.6,52c0-10.5,9.6-11.8,16.6-11.8c11.9,0,16.4,3.4,16.4,14.7V76c0,1.3,0.1,1.5,1.3,1.6
				l4,0.6v5.3H69z M67.3,65l-7.8,0.7c-6.2,0.6-8.1,2.3-8.1,6.3s1.9,5.3,5.3,5.3c4,0,8.1-2.5,10.6-4.9V65z"/>
		</g>
		<path d="M120.8,43.1c-2.2-6.9-5.5-13.2-9.8-18.8c1.9-3.1,2.6-7,1.4-10.8c-2.2-6.8-9.5-10.6-16.3-8.4c-1.7,0.6-3.3,1.4-4.6,2.6
			c-0.4-0.2-0.8-0.5-1.3-0.7c-14.7-7.6-31.4-9-47.1-4C27.4,8,14.5,18.8,6.9,33.5c-7.6,14.7-9,31.4-4,47.1
			c8.4,26.3,32.7,43.1,58.9,43.1c6.2,0,12.5-0.9,18.7-2.9c15.7-5,28.6-15.8,36.2-30.5C124.3,75.6,125.8,58.8,120.8,43.1z
			 M111.8,87.7c-6.9,13.3-18.6,23.2-32.9,27.8c-5.7,1.8-11.4,2.7-17,2.7c-23.8,0-46-15.3-53.6-39.2C3.7,64.6,5,49.4,11.9,36
			c6.9-13.3,18.6-23.2,32.9-27.8c5.6-1.8,11.4-2.7,17.1-2.7c8.9,0,17.7,2.1,25.8,6.3c0.2,0.1,0.3,0.2,0.5,0.3
			c-1.2,2.8-1.5,6-0.5,9.2c2.2,6.8,9.5,10.6,16.3,8.4c1.1-0.4,2.1-0.9,3.1-1.5c3.7,4.9,6.5,10.5,8.4,16.5
			C120,59.1,118.7,74.3,111.8,87.7z"/>
	</g>
</g>
<g id="Layer_2">
</g>
</svg>
